# 3ds Max Wavefront OBJ Exporter v0.97b - (c)2007 guruware
# File Created: 28.01.2016 19:43:50

mtllib BlockSmasher.mtl

#
# object Smasher
#

v  -1.8556 18.9658 4.2150
v  -2.8065 17.7165 1.4050
v  0.0000 17.7165 1.4050
v  -0.0002 18.5454 4.2150
v  2.8065 17.7165 1.4050
v  1.8551 18.9664 4.2150
v  -2.8065 17.7165 -1.4050
v  0.0000 17.7165 -1.4050
v  2.8065 17.7165 -1.4050
v  -1.8556 18.9658 -4.2150
v  -0.0002 18.5454 -4.2150
v  1.8551 18.9664 -4.2150
v  -1.8551 22.0797 4.2150
v  0.0002 22.5006 4.2150
v  0.0000 23.7070 1.4050
v  -2.8065 23.3295 1.4050
v  1.8556 22.0803 4.2150
v  2.8065 23.3295 1.4050
v  0.0000 23.7070 -1.4050
v  -2.8065 23.3295 -1.4050
v  2.8065 23.3295 -1.4050
v  0.0002 22.5006 -4.2150
v  -1.8551 22.0797 -4.2150
v  1.8556 22.0803 -4.2150
v  0.0000 20.5230 4.2150
v  -1.8553 20.5227 4.2150
v  1.8553 20.5233 4.2150
v  3.6370 20.5230 1.4050
v  3.6370 20.5230 -1.4050
v  1.8553 20.5233 -4.2150
v  0.0000 20.5230 -4.2150
v  -1.8553 20.5227 -4.2150
v  -3.6370 20.5230 -1.4050
v  -3.6370 20.5230 1.4050
v  -0.9361 0.0000 -0.3042
v  0.0000 0.0000 -0.9843
v  0.9361 0.0000 -0.3042
v  0.5785 0.0000 0.7963
v  -0.5785 0.0000 0.7963
v  0.0010 0.2030 -1.0890
v  1.0367 0.2030 -0.3365
v  -1.0347 0.2030 -0.3365
v  -0.6391 0.2030 0.8810
v  0.6411 0.2030 0.8810
v  0.0001 8.5517 -1.0890
v  1.0358 8.5517 -0.3365
v  -1.0356 8.5517 -0.3365
v  -0.6400 8.5517 0.8810
v  0.6402 8.5517 0.8810
v  0.0010 8.6924 -0.6859
v  0.6878 8.6924 -0.2119
v  -0.6858 8.6924 -0.2119
v  -0.4235 8.6924 0.5549
v  0.4255 8.6924 0.5549
v  0.0001 17.7165 -0.6859
v  0.6870 17.7165 -0.2119
v  -0.6867 17.7165 -0.2119
v  -0.4243 17.7165 0.5549
v  0.4246 17.7165 0.5549
# 59 vertices

vn -0.1135 -0.9335 0.3401
vn 0.0000 -0.9826 0.1857
vn -0.0191 -0.9863 0.1640
vn -0.0531 -0.9417 0.3321
vn 0.0336 -0.9867 0.1590
vn 0.1972 -0.8692 0.4534
vn -0.0336 -0.9867 -0.1589
vn 0.0191 -0.9863 -0.1640
vn 0.0000 -0.9826 -0.1858
vn -0.1970 -0.8694 -0.4532
vn 0.0533 -0.9417 -0.3321
vn 0.1136 -0.9335 -0.3402
vn -0.1652 0.8969 0.4103
vn -0.0210 0.9106 0.4128
vn -0.0068 0.9786 0.2058
vn -0.1305 0.9700 0.2054
vn 0.1970 0.8694 0.4532
vn 0.1440 0.9704 0.1941
vn 0.0068 0.9786 -0.2058
vn -0.1440 0.9703 -0.1941
vn 0.1305 0.9700 -0.2053
vn 0.0208 0.9106 -0.4128
vn -0.1972 0.8692 -0.4534
vn 0.1650 0.8969 -0.4102
vn 0.0000 0.0000 1.0000
vn -0.0000 0.0000 1.0000
vn 0.8663 -0.1134 0.4865
vn 0.9417 -0.2787 0.1886
vn 0.9689 0.0154 0.2470
vn 0.8742 0.0608 0.4817
vn 0.9452 -0.2433 -0.2176
vn 0.9689 -0.0155 -0.2470
vn 0.9472 -0.0001 -0.3207
vn 0.8742 -0.0609 -0.4817
vn 0.9452 0.2433 0.2175
vn 0.9472 -0.0001 0.3205
vn 0.9417 0.2787 -0.1885
vn 0.8663 0.1133 -0.4864
vn 0.0000 0.0000 -1.0000
vn 0.0000 -0.0000 -1.0000
vn -0.0000 -0.0000 -1.0000
vn -0.8663 -0.1133 -0.4864
vn -0.9417 -0.2787 -0.1885
vn -0.9689 0.0155 -0.2470
vn -0.8742 0.0609 -0.4817
vn -0.9452 -0.2433 0.2175
vn -0.9689 -0.0154 0.2470
vn -0.9472 0.0001 0.3205
vn -0.8742 -0.0608 0.4817
vn -0.9452 0.2433 -0.2176
vn -0.9472 0.0001 -0.3207
vn -0.9417 0.2787 0.1886
vn -0.8663 0.1134 0.4865
vn 0.0000 -1.0000 -0.0000
vn 0.0006 -0.2179 -0.9760
vn 0.9280 -0.2193 -0.3013
vn 0.8434 -0.4618 -0.2747
vn -0.0019 -0.4585 -0.8887
vn -0.9285 -0.2164 -0.3019
vn -0.8470 -0.4553 -0.2746
vn -0.5734 -0.2170 0.7900
vn -0.5242 -0.4565 0.7189
vn 0.5739 -0.2188 0.7891
vn 0.5205 -0.4605 0.7190
vn 0.0009 0.4935 -0.8697
vn 0.8301 0.4866 -0.2722
vn -0.8307 0.4866 -0.2705
vn -0.5105 0.4914 0.7056
vn 0.5101 0.4906 0.7065
vn 0.0051 0.7034 -0.7108
vn 0.6779 0.7010 -0.2217
vn -0.6793 0.7021 -0.2136
vn -0.4218 0.7024 0.5734
vn 0.4193 0.7030 0.5744
vn 0.9497 0.0001 -0.3132
vn -0.9497 -0.0001 -0.3132
vn -0.5815 -0.0001 0.8135
vn 0.5815 0.0001 0.8136
# 78 vertex normals

vt 0.4370 0.6779 0.0000
vt 0.6196 0.6232 0.0000
vt 0.6185 0.7897 0.0000
vt 0.4446 0.7902 0.0000
vt 0.6181 0.9563 0.0000
vt 0.4353 0.9024 0.0000
vt 0.7860 0.6239 0.0000
vt 0.7857 0.7905 0.0000
vt 0.7845 0.9571 0.0000
vt 0.9688 0.6778 0.0000
vt 0.9595 0.7900 0.0000
vt 0.9671 0.9023 0.0000
vt 0.6319 0.0179 0.0000
vt 0.7467 0.0259 0.0000
vt 0.7466 0.2064 0.0000
vt 0.5796 0.2035 0.0000
vt 0.8605 0.0174 0.0000
vt 0.9136 0.2031 0.0000
vt 0.7468 0.3691 0.0000
vt 0.5798 0.3724 0.0000
vt 0.9138 0.3720 0.0000
vt 0.7467 0.5496 0.0000
vt 0.6328 0.5581 0.0000
vt 0.8615 0.5576 0.0000
vt 0.2773 0.7062 0.0000
vt 0.2918 0.7706 0.0000
vt 0.2232 0.7706 0.0000
vt 0.2232 0.7062 0.0000
vt 0.2772 0.8350 0.0000
vt 0.2232 0.8350 0.0000
vt 0.1545 0.7706 0.0000
vt 0.1691 0.7062 0.0000
vt 0.1691 0.8350 0.0000
vt 0.5556 0.2771 0.0000
vt 0.3721 0.3492 0.0000
vt 0.3648 0.1786 0.0000
vt 0.5599 0.1778 0.0000
vt 0.1985 0.3474 0.0000
vt 0.2094 0.1769 0.0000
vt 0.0156 0.2732 0.0000
vt 0.0143 0.1778 0.0000
vt 0.3758 0.0082 0.0000
vt 0.5587 0.0823 0.0000
vt 0.2021 0.0064 0.0000
vt 0.0187 0.0785 0.0000
vt 0.0269 0.8385 0.0000
vt 0.0122 0.7741 0.0000
vt 0.0809 0.7740 0.0000
vt 0.0810 0.8385 0.0000
vt 0.0267 0.7097 0.0000
vt 0.0808 0.7096 0.0000
vt 0.1495 0.7740 0.0000
vt 0.1350 0.8384 0.0000
vt 0.1348 0.7096 0.0000
vt 0.0167 0.4322 0.0000
vt 0.1976 0.3576 0.0000
vt 0.2073 0.5278 0.0000
vt 0.0143 0.5306 0.0000
vt 0.3713 0.3556 0.0000
vt 0.3623 0.5278 0.0000
vt 0.5556 0.4289 0.0000
vt 0.5575 0.5249 0.0000
vt 0.1976 0.6980 0.0000
vt 0.0160 0.6253 0.0000
vt 0.3713 0.7000 0.0000
vt 0.5549 0.6248 0.0000
vt 0.3116 0.7998 0.0000
vt 0.3325 0.7842 0.0000
vt 0.3533 0.7998 0.0000
vt 0.3451 0.8238 0.0000
vt 0.3197 0.8239 0.0000
vt 0.3347 0.7792 0.0000
vt 0.3582 0.7985 0.0000
vt 0.3067 0.7985 0.0000
vt 0.3303 0.7792 0.0000
vt 0.3170 0.8279 0.0000
vt 0.3479 0.8278 0.0000
vt 0.1579 0.9621 0.3471
vt 0.1579 0.9913 0.3564
vt 0.0147 0.9915 0.3567
vt 0.0147 0.9622 0.3471
vt 0.1579 0.9328 0.3567
vt 0.0147 0.9329 0.3564
vt 0.1579 0.9055 0.4081
vt 0.0147 0.9056 0.4079
vt 0.1578 0.8813 0.4079
vt 0.0146 0.8814 0.4081
vt 0.1578 0.8540 0.3564
vt 0.0146 0.8541 0.3567
vt 0.3354 0.7476 0.0000
vt 0.3486 0.7343 0.0000
vt 0.3573 0.7362 0.0000
vt 0.3374 0.7570 0.0000
vt 0.3149 0.7343 0.0000
vt 0.3282 0.7476 0.0000
vt 0.3261 0.7569 0.0000
vt 0.3062 0.7362 0.0000
vt 0.3222 0.7176 0.0000
vt 0.3174 0.7097 0.0000
vt 0.3413 0.7177 0.0000
vt 0.3461 0.7097 0.0000
vt 0.3129 0.9597 0.2051
vt 0.3130 0.9905 0.2331
vt 0.1582 0.9907 0.2334
vt 0.1582 0.9599 0.2051
vt 0.3129 0.9290 0.2334
vt 0.1581 0.9291 0.2331
vt 0.3129 0.9031 0.2724
vt 0.1581 0.9032 0.2722
vt 0.3129 0.8791 0.2722
vt 0.1581 0.8792 0.2724
vt 0.3129 0.8531 0.2331
vt 0.1581 0.8533 0.2334
# 113 texture coords

g Smasher
usemtl Smasher
s 2
f 1/1/1 2/2/2 3/3/3 
f 3/3/3 4/4/4 1/1/1 
f 4/4/4 3/3/3 5/5/5 
f 5/5/5 6/6/6 4/4/4 
f 2/2/2 7/7/7 8/8/8 
f 8/8/8 3/3/3 2/2/2 
f 3/3/3 8/8/8 9/9/9 
f 9/9/9 5/5/5 3/3/3 
f 7/7/7 10/10/10 11/11/11 
f 11/11/11 8/8/8 7/7/7 
f 8/8/8 11/11/11 12/12/12 
f 12/12/12 9/9/9 8/8/8 
s 4
f 13/13/13 14/14/14 15/15/15 
f 15/15/15 16/16/16 13/13/13 
f 14/14/14 17/17/17 18/18/18 
f 18/18/18 15/15/15 14/14/14 
f 16/16/16 15/15/15 19/19/19 
f 19/19/19 20/20/20 16/16/16 
f 15/15/15 18/18/18 21/21/21 
f 21/21/21 19/19/19 15/15/15 
f 20/20/20 19/19/19 22/22/22 
f 22/22/22 23/23/23 20/20/20 
f 19/19/19 21/21/21 24/24/24 
f 24/24/24 22/22/22 19/19/19 
s 8
f 1/25/25 4/26/25 25/27/25 
f 25/27/25 26/28/26 1/25/25 
f 4/26/25 6/29/25 27/30/26 
f 27/30/26 25/27/25 4/26/25 
f 26/28/26 25/27/25 14/31/25 
f 14/31/25 13/32/26 26/28/26 
f 25/27/25 27/30/26 17/33/25 
f 17/33/25 14/31/25 25/27/25 
s 16
f 6/34/27 5/35/28 28/36/29 
f 28/36/29 27/37/30 6/34/27 
f 5/35/28 9/38/31 29/39/32 
f 29/39/32 28/36/29 5/35/28 
f 9/38/31 12/40/33 30/41/34 
f 30/41/34 29/39/32 9/38/31 
f 27/37/30 28/36/29 18/42/35 
f 18/42/35 17/43/36 27/37/30 
f 28/36/29 29/39/32 21/44/37 
f 21/44/37 18/42/35 28/36/29 
f 29/39/32 30/41/34 24/45/38 
f 24/45/38 21/44/37 29/39/32 
s 32
f 12/46/39 11/47/39 31/48/40 
f 31/48/40 30/49/41 12/46/39 
f 11/47/39 10/50/39 32/51/40 
f 32/51/40 31/48/40 11/47/39 
f 30/49/41 31/48/40 22/52/40 
f 22/52/40 24/53/41 30/49/41 
f 31/48/40 32/51/40 23/54/40 
f 23/54/40 22/52/40 31/48/40 
s 64
f 10/55/42 7/56/43 33/57/44 
f 33/57/44 32/58/45 10/55/42 
f 7/56/43 2/59/46 34/60/47 
f 34/60/47 33/57/44 7/56/43 
f 2/59/46 1/61/48 26/62/49 
f 26/62/49 34/60/47 2/59/46 
f 32/58/45 33/57/44 20/63/50 
f 20/63/50 23/64/51 32/58/45 
f 33/57/44 34/60/47 16/65/52 
f 16/65/52 20/63/50 33/57/44 
f 34/60/47 26/62/49 13/66/53 
f 13/66/53 16/65/52 34/60/47 
s 1
f 35/67/54 36/68/54 37/69/54 
f 37/69/54 38/70/54 39/71/54 
f 35/67/54 37/69/54 39/71/54 
s 8
f 40/72/55 41/73/56 37/69/57 
f 37/69/57 36/68/58 40/72/55 
f 42/74/59 40/75/55 36/68/58 
f 36/68/58 35/67/60 42/74/59 
f 43/76/61 42/74/59 35/67/60 
f 35/67/60 39/71/62 43/76/61 
f 44/77/63 43/76/61 39/71/62 
f 39/71/62 38/70/64 44/77/63 
f 41/73/56 44/77/63 38/70/64 
f 38/70/64 37/69/57 41/73/56 
f 45/78/65 46/79/66 41/80/56 
f 41/80/56 40/81/55 45/78/65 
f 47/82/67 45/78/65 40/81/55 
f 40/81/55 42/83/59 47/82/67 
f 48/84/68 47/82/67 42/83/59 
f 42/83/59 43/85/61 48/84/68 
f 49/86/69 48/84/68 43/85/61 
f 43/85/61 44/87/63 49/86/69 
f 46/88/66 49/86/69 44/87/63 
f 44/87/63 41/89/56 46/88/66 
f 50/90/70 51/91/71 46/92/66 
f 46/92/66 45/93/65 50/90/70 
f 52/94/72 50/95/70 45/96/65 
f 45/96/65 47/97/67 52/94/72 
f 53/98/73 52/94/72 47/97/67 
f 47/97/67 48/99/68 53/98/73 
f 54/100/74 53/98/73 48/99/68 
f 48/99/68 49/101/69 54/100/74 
f 51/91/71 54/100/74 49/101/69 
f 49/101/69 46/92/66 51/91/71 
f 55/102/41 56/103/75 51/104/71 
f 51/104/71 50/105/70 55/102/41 
f 57/106/76 55/102/41 50/105/70 
f 50/105/70 52/107/72 57/106/76 
f 58/108/77 57/106/76 52/107/72 
f 52/107/72 53/109/73 58/108/77 
f 59/110/78 58/108/77 53/109/73 
f 53/109/73 54/111/74 59/110/78 
f 56/112/75 59/110/78 54/111/74 
f 54/111/74 51/113/71 56/112/75 
# 107 faces

